HIERARCHY
ROOT Hips
{
	OFFSET 0.000000 0.000000 0.000000
	CHANNELS 6 Xposition Yposition Zposition Zrotation Yrotation Xrotation 
	JOINT LHipJoint
	{
		OFFSET 0.000000 0.000000 0.000000
		CHANNELS 3 Zrotation Yrotation Xrotation
		JOINT LeftUpLeg
		{
			OFFSET 1.363060 -1.794630 0.839290
			CHANNELS 3 Zrotation Yrotation Xrotation
			JOINT LeftLeg
			{
				OFFSET 2.448110 -6.726130 0.000000
				CHANNELS 3 Zrotation Yrotation Xrotation
				JOINT LeftFoot
				{
					OFFSET 2.562200 -7.039590 0.000000
					CHANNELS 3 Zrotation Yrotation Xrotation
					JOINT LeftToeBase
					{
						OFFSET 0.157640 -0.433110 2.322550
						CHANNELS 3 Zrotation Yrotation Xrotation
						End Site
						{
							OFFSET 0.000000 0.000000 0.000000
						}
					}
				}
			}
		}
	}
	JOINT RHipJoint
	{
		OFFSET 0.000000 0.000000 0.000000
		CHANNELS 3 Zrotation Yrotation Xrotation
		JOINT RightUpLeg
		{
			OFFSET -1.305520 -1.794630 0.839290
			CHANNELS 3 Zrotation Yrotation Xrotation
			JOINT RightLeg
			{
				OFFSET -2.542530 -6.985550 0.000000
				CHANNELS 3 Zrotation Yrotation Xrotation
				JOINT RightFoot
				{
					OFFSET -2.568260 -7.056230 0.000000
					CHANNELS 3 Zrotation Yrotation Xrotation
					JOINT RightToeBase
					{
						OFFSET -0.164730 -0.452590 2.363150
						CHANNELS 3 Zrotation Yrotation Xrotation
						End Site
						{
							OFFSET 0.000000 0.000000 0.000000
						}
					}
				}
			}
		}
	}
}
MOTION
Frames: 19
Frame Time: 0.008333
-8.115988 17.247582 -2.183502 8.385708 82.624538 42.438266 -8.541493 -1.843861 1.389483 -6.628745 -1.335080 -50.762683 -3.307898 -1.551922 4.209093 0.685109 3.094272 -2.121644 0.766300 0.000001 -43.426400 10.101603 -0.981449 -1.298432 5.688492 6.421087 -22.242651 0.212808 -2.104808 34.963507 -1.055166 -4.861833 5.692214 -1.352700 0.000000 -56.729200
-7.917344 17.155070 -2.187409 10.567537 82.741705 44.403408 -8.504485 -1.798586 1.476218 -6.125827 -2.098954 -51.274711 -3.199153 -1.315490 6.071506 0.683501 3.149470 -1.691543 0.807800 -0.000000 -44.448400 10.223096 -0.940876 -1.387383 5.473443 6.316537 -22.404017 0.071891 -2.262529 37.454994 -1.246796 -5.885290 4.513425 -1.468900 0.000000 -54.743800
-7.720545 17.052041 -2.189530 13.534822 82.887208 47.148660 -8.454233 -1.721532 1.530041 -5.888754 -2.831734 -52.023896 -3.103782 -1.016298 8.551335 0.687693 3.191331 -1.368131 0.837499 0.000000 -45.333200 10.371377 -0.889404 -1.468245 5.191944 6.130741 -22.672058 -0.069480 -2.426466 40.096187 -1.454109 -6.992226 3.155382 -1.545700 -0.000000 -52.584500
-7.525823 16.939158 -2.190037 17.119672 83.045971 50.501944 -8.396712 -1.621601 1.530951 -5.962179 -3.430009 -53.039485 -3.026016 -0.647928 11.679280 0.682061 3.116346 -1.216530 0.832600 -0.000001 -45.998700 10.538769 -0.832158 -1.535321 4.873994 5.891267 -23.027817 -0.209557 -2.593743 42.846180 -1.671807 -8.153876 1.640607 -1.566100 -0.000000 -50.264500
-7.333689 16.817737 -2.188489 21.293636 83.192021 54.427720 -8.330925 -1.507623 1.476317 -6.321845 -3.894401 -54.250283 -2.950923 -0.223439 15.344220 0.672741 2.966645 -1.263065 0.796800 0.000000 -46.398200 10.725972 -0.768987 -1.591980 4.515655 5.604067 -23.453822 -0.346625 -2.765348 45.675205 -1.889903 -9.310328 -0.020292 -1.508000 -0.000000 -47.723300
-7.144507 16.689302 -2.185318 25.805660 83.308248 58.675976 -8.263554 -1.393705 1.365580 -6.902072 -4.217085 -55.596655 -2.863659 0.243649 19.441456 0.665620 2.774045 -1.558352 0.731999 -0.000000 -46.439400 10.921898 -0.702990 -1.641719 4.145433 5.297000 -23.934715 -0.479850 -2.940242 48.549581 -2.099515 -10.413492 -1.799807 -1.360499 -0.000000 -45.023500
-6.958783 16.556090 -2.180331 30.520072 83.374130 63.109020 -8.193638 -1.288770 1.207259 -7.630957 -4.440380 -56.972879 -2.753134 0.726508 23.789906 0.673106 2.617912 -2.125120 0.651100 0.000000 -46.136100 11.124433 -0.633184 -1.692041 3.759503 4.976560 -24.458962 -0.608461 -3.119920 51.441621 -2.289504 -11.401328 -3.676253 -1.117300 -0.000000 -42.188400
-6.776967 16.420705 -2.173616 35.230675 83.377577 67.521579 -8.122082 -1.199291 1.009438 -8.444182 -4.593470 -58.289063 -2.619250 1.200303 28.220843 0.702176 2.542500 -2.985569 0.559900 0.000000 -45.546100 11.329300 -0.558900 -1.749626 3.359411 4.652066 -25.018897 -0.732098 -3.305109 54.321392 -2.450517 -12.224179 -5.617483 -0.785600 -0.000000 -39.306800
-6.599391 16.285984 -2.165357 39.726451 83.313297 71.704418 -8.050121 -1.127352 0.779023 -9.293822 -4.696138 -59.469589 -2.470493 1.645164 32.581336 0.754847 2.563050 -4.145973 0.457700 0.000000 -44.785400 11.533036 -0.478925 -1.820423 2.945178 4.328913 -25.609529 -0.850403 -3.496167 57.157411 -2.575500 -12.845318 -7.587435 -0.384000 -0.000000 -36.485200
-6.426205 16.154877 -2.155620 43.824255 83.180304 75.475259 -7.978851 -1.070678 0.520806 -10.150723 -4.757719 -60.453943 -2.319910 2.048442 36.743491 0.828968 2.670366 -5.591554 0.339400 0.000000 -43.997200 11.733705 -0.391334 -1.908748 2.513265 4.008918 -26.226928 -0.963011 -3.693005 59.917917 -2.660308 -13.243067 -9.551353 0.060900 -0.000001 -33.804701
-6.257365 16.030221 -2.144915 47.358871 82.990745 78.669406 -7.912336 -1.026701 0.240228 -10.985616 -4.777047 -61.205409 -2.178957 2.404463 40.614075 0.919785 2.838957 -7.285964 0.198300 0.000000 -43.313400 11.926932 -0.296489 -2.015293 2.072957 3.696517 -26.868875 -1.069340 -3.894034 62.569239 -2.705003 -13.417738 -11.472327 0.517600 0.000000 -31.343300
-6.092647 15.914512 -2.133618 50.244003 82.756890 81.200005 -7.853343 -0.991437 -0.058087 -11.779386 -4.751489 -61.698514 -2.056581 2.711561 44.124087 1.022158 3.042466 -9.169835 0.030400 0.000000 -42.833500 12.110038 -0.193976 -2.139320 1.629257 3.392615 -27.532303 -1.168827 -4.097056 65.078584 -2.712803 -13.385634 -13.317561 0.956400 0.000000 -29.154500
-5.931578 15.809862 -2.122332 52.445506 82.495924 83.034696 -7.806388 -0.963152 -0.368582 -12.509250 -4.677474 -61.926128 -1.957312 2.970842 47.230644 1.131133 3.258237 -11.166645 -0.163500 0.000000 -42.613900 12.277643 -0.084401 -2.278597 1.196189 3.100320 -28.216115 -1.260793 -4.298594 67.414831 -2.690355 -13.181120 -15.057044 1.353200 -0.000001 -27.268000
-5.773529 15.717885 -2.111634 53.982761 82.224640 84.196090 -7.775503 -0.941165 -0.684962 -13.154450 -4.554335 -61.894281 -1.882129 3.184526 49.911688 1.242449 3.472480 -13.190490 -0.377700 -0.000001 -42.666400 12.424230 0.031505 -2.429714 0.789575 2.822604 -28.920097 -1.344436 -4.494449 69.549931 -2.646767 -12.851943 -16.667190 1.693400 -0.000000 -25.692800
-5.617663 15.639637 -2.101988 54.905445 81.959293 84.738024 -7.763406 -0.925078 -0.999775 -13.697590 -4.383436 -61.619386 -1.829192 3.355180 52.162731 1.352564 3.680988 -15.154487 -0.603300 -0.000000 -42.966800 12.545396 0.152475 -2.586825 0.426304 2.564244 -29.645067 -1.418970 -4.679870 71.460035 -2.592603 -12.454798 -18.130060 1.973000 -0.000000 -24.426300
-5.463150 15.575483 -2.093817 55.304862 81.710882 84.758447 -7.772830 -0.914769 -1.304832 -14.127425 -4.175087 -61.129011 -1.794388 3.486195 53.998226 1.458960 3.889221 -16.981679 -0.830801 0.000000 -43.443900 12.636320 0.278052 -2.746314 0.119457 2.320138 -30.395124 -1.482716 -4.850590 73.129523 -2.537812 -12.042370 -19.444930 2.198600 -0.000000 -23.403400
-5.309118 15.525498 -2.087083 55.243168 81.489812 84.325248 -7.803153 -0.909161 -1.592184 -14.438801 -3.933557 -60.454323 -1.773277 3.580706 55.440382 1.559543 4.106211 -18.609711 -1.051900 -0.000000 -44.035500 12.695789 0.406612 -2.899100 -0.117053 2.098147 -31.173572 -1.534829 -5.001990 74.545741 -2.492844 -11.672415 -20.609853 2.382799 0.000000 -22.593600
-5.154668 15.489253 -2.081700 54.798074 81.300858 83.525471 -7.853584 -0.906809 -1.854426 -14.634748 -3.668744 -59.632437 -1.761258 3.642579 56.522645 1.653307 4.343752 -19.998962 -1.261000 -0.000001 -44.664600 12.722617 0.537327 -3.038367 -0.276056 1.898949 -31.987217 -1.573638 -5.130572 75.704195 -2.465547 -11.386850 -21.638766 2.542700 0.000001 -21.911800
-4.999284 15.465890 -2.077194 54.056630 81.141605 82.458382 -7.922149 -0.906392 -2.088794 -14.728401 -3.393010 -58.702007 -1.754850 3.676824 57.285596 1.740331 4.613010 -21.135333 -1.456000 -0.000000 -45.248100 12.716281 0.672212 -3.163156 -0.359857 1.714312 -32.845072 -1.596922 -5.235027 76.608656 -2.460587 -11.207900 -22.557942 2.695000 -0.000000 -21.232500
